<svg id="Layer_1" enable-background="new 0 0 512 512" height="512" viewBox="0 0 512 512" width="512" xmlns="http://www.w3.org/2000/svg"><g><g><path d="m406.625 451.75h-301.25c-8.284 0-15-6.716-15-15v-271.125c0-91.326 74.299-165.625 165.625-165.625s165.625 74.299 165.625 165.625v271.125c0 8.284-6.716 15-15 15z" fill="#555a66"/></g><path d="m406.625 451.75c8.284 0 15-6.716 15-15v-271.125c0-91.326-74.299-165.625-165.625-165.625v451.75z" fill="#414952"/><g><path d="m346.375 451.75h-180.75c-8.284 0-15-6.716-15-15v-271.125c0-58.104 47.271-105.375 105.375-105.375s105.375 47.271 105.375 105.375v271.125c0 8.284-6.716 15-15 15z" fill="#eceae7"/></g><path d="m346.375 451.75c8.284 0 15-6.716 15-15v-271.125c0-58.104-47.271-105.375-105.375-105.375v391.5z" fill="#e7dfdd"/><path d="m286.125 195.813h-15.125v-15.125c0-8.284-6.716-15-15-15s-15 6.716-15 15v15.125h-15.125c-8.284 0-15 6.716-15 15s6.716 15 15 15h15.125v45.25c0 8.284 6.716 15 15 15s15-6.716 15-15v-45.25h15.125c8.284 0 15-6.716 15-15s-6.716-15-15-15z" fill="#333940"/><g><path d="m286.125 346.313h-60.25c-8.284 0-15-6.716-15-15s6.716-15 15-15h60.25c8.284 0 15 6.716 15 15s-6.716 15-15 15z" fill="#333940"/></g><g><path d="m466.875 512h-421.75c-8.284 0-15-6.716-15-15 0-41.493 33.757-75.25 75.25-75.25h301.25c41.493 0 75.25 33.757 75.25 75.25 0 8.284-6.716 15-15 15z" fill="#333940"/></g><g fill="#23272b"><path d="m286.125 316.313h-30.125v30h30.125c8.284 0 15-6.716 15-15s-6.716-15-15-15z"/><path d="m271 271.063v-45.25h15.125c8.284 0 15-6.716 15-15s-6.716-15-15-15h-15.125v-15.125c0-8.284-6.716-15-15-15v120.375c8.284 0 15-6.716 15-15z"/><path d="m406.625 421.75h-150.625v90.25h210.875c8.284 0 15-6.716 15-15 0-41.493-33.757-75.25-75.25-75.25z"/></g></g></svg>